<svg id="eDQuEs8Kw4e1" xmlns="http://www.w3.org/2000/svg" xmlns:xlink="http://www.w3.org/1999/xlink" viewBox="0 0 875 625" shape-rendering="geometricPrecision" text-rendering="geometricPrecision"><defs><filter id="eDQuEs8Kw4e4-filter" x="-150%" width="400%" y="-150%" height="400%"><feGaussianBlur id="eDQuEs8Kw4e4-filter-drop-shadow-0-blur" in="SourceAlpha" stdDeviation="8,8"/><feOffset id="eDQuEs8Kw4e4-filter-drop-shadow-0-offset" dx="5" dy="5" result="tmp"/><feFlood id="eDQuEs8Kw4e4-filter-drop-shadow-0-flood" flood-color="rgba(0,0,0,0.3)"/><feComposite id="eDQuEs8Kw4e4-filter-drop-shadow-0-composite" operator="in" in2="tmp"/><feMerge id="eDQuEs8Kw4e4-filter-drop-shadow-0-merge" result="result"><feMergeNode id="eDQuEs8Kw4e4-filter-drop-shadow-0-merge-node-1"/><feMergeNode id="eDQuEs8Kw4e4-filter-drop-shadow-0-merge-node-2" in="SourceGraphic"/></feMerge></filter><filter id="eDQuEs8Kw4e5-filter" x="-150%" width="400%" y="-150%" height="400%"><feGaussianBlur id="eDQuEs8Kw4e5-filter-inner-shadow-0-blur" in="SourceAlpha" stdDeviation="2,2"/><feOffset id="eDQuEs8Kw4e5-filter-inner-shadow-0-offset" dx="2" dy="2" result="tmp"/><feComposite id="eDQuEs8Kw4e5-filter-inner-shadow-0-composite" operator="arithmetic" k2="-1" k3="1" in2="SourceGraphic"/><feColorMatrix id="eDQuEs8Kw4e5-filter-inner-shadow-0-color-matrix" type="matrix" values="0 0 0 0 1 0 0 0 0 1 0 0 0 0 1 0 0 0 0.24 0"/><feMerge id="eDQuEs8Kw4e5-filter-inner-shadow-0-merge" result="result"><feMergeNode id="eDQuEs8Kw4e5-filter-inner-shadow-0-merge-node-1" in="SourceGraphic"/><feMergeNode id="eDQuEs8Kw4e5-filter-inner-shadow-0-merge-node-2"/></feMerge><feGaussianBlur id="eDQuEs8Kw4e5-filter-drop-shadow-0-blur" in="result" stdDeviation="1,1"/><feOffset id="eDQuEs8Kw4e5-filter-drop-shadow-0-offset" dx="0" dy="0" result="tmp"/><feFlood id="eDQuEs8Kw4e5-filter-drop-shadow-0-flood" flood-color="rgba(0,0,0,0.3)"/><feComposite id="eDQuEs8Kw4e5-filter-drop-shadow-0-composite" operator="in" in2="tmp"/><feMerge id="eDQuEs8Kw4e5-filter-drop-shadow-0-merge" result="result"><feMergeNode id="eDQuEs8Kw4e5-filter-drop-shadow-0-merge-node-1"/><feMergeNode id="eDQuEs8Kw4e5-filter-drop-shadow-0-merge-node-2" in="result"/></feMerge></filter><linearGradient id="eDQuEs8Kw4e5-fill" x1="0" y1="0" x2="0.98913" y2="1" spreadMethod="pad" gradientUnits="objectBoundingBox" gradientTransform="translate(0 0)"><stop id="eDQuEs8Kw4e5-fill-0" offset="0%" stop-color="#fff6df"/><stop id="eDQuEs8Kw4e5-fill-1" offset="100%" stop-color="#ffe194"/></linearGradient><linearGradient id="eDQuEs8Kw4e6-fill" x1="0" y1="0" x2="0.98913" y2="1" spreadMethod="pad" gradientUnits="objectBoundingBox" gradientTransform="translate(0 0)"><stop id="eDQuEs8Kw4e6-fill-0" offset="17.8259%" stop-color="rgba(255,255,255,0)"/><stop id="eDQuEs8Kw4e6-fill-1" offset="20.901%" stop-color="#fff"/><stop id="eDQuEs8Kw4e6-fill-2" offset="49.0384%" stop-color="#fff"/><stop id="eDQuEs8Kw4e6-fill-3" offset="52.4724%" stop-color="rgba(255,255,255,0)"/></linearGradient><filter id="eDQuEs8Kw4e8-filter" x="-150%" width="400%" y="-150%" height="400%"><feGaussianBlur id="eDQuEs8Kw4e8-filter-drop-shadow-0-blur" in="SourceAlpha" stdDeviation="8,8"/><feOffset id="eDQuEs8Kw4e8-filter-drop-shadow-0-offset" dx="5" dy="5" result="tmp"/><feFlood id="eDQuEs8Kw4e8-filter-drop-shadow-0-flood" flood-color="rgba(0,0,0,0.3)"/><feComposite id="eDQuEs8Kw4e8-filter-drop-shadow-0-composite" operator="in" in2="tmp"/><feMerge id="eDQuEs8Kw4e8-filter-drop-shadow-0-merge" result="result"><feMergeNode id="eDQuEs8Kw4e8-filter-drop-shadow-0-merge-node-1"/><feMergeNode id="eDQuEs8Kw4e8-filter-drop-shadow-0-merge-node-2" in="SourceGraphic"/></feMerge></filter><filter id="eDQuEs8Kw4e9-filter" x="-150%" width="400%" y="-150%" height="400%"><feGaussianBlur id="eDQuEs8Kw4e9-filter-inner-shadow-0-blur" in="SourceAlpha" stdDeviation="2,2"/><feOffset id="eDQuEs8Kw4e9-filter-inner-shadow-0-offset" dx="2" dy="2" result="tmp"/><feComposite id="eDQuEs8Kw4e9-filter-inner-shadow-0-composite" operator="arithmetic" k2="-1" k3="1" in2="SourceGraphic"/><feColorMatrix id="eDQuEs8Kw4e9-filter-inner-shadow-0-color-matrix" type="matrix" values="0 0 0 0 0 0 0 0 0 0 0 0 0 0 0 0 0 0 0.3 0"/><feMerge id="eDQuEs8Kw4e9-filter-inner-shadow-0-merge" result="result"><feMergeNode id="eDQuEs8Kw4e9-filter-inner-shadow-0-merge-node-1" in="SourceGraphic"/><feMergeNode id="eDQuEs8Kw4e9-filter-inner-shadow-0-merge-node-2"/></feMerge><feGaussianBlur id="eDQuEs8Kw4e9-filter-drop-shadow-0-blur" in="result" stdDeviation="1,1"/><feOffset id="eDQuEs8Kw4e9-filter-drop-shadow-0-offset" dx="0" dy="0" result="tmp"/><feFlood id="eDQuEs8Kw4e9-filter-drop-shadow-0-flood" flood-color="rgba(0,0,0,0.4)"/><feComposite id="eDQuEs8Kw4e9-filter-drop-shadow-0-composite" operator="in" in2="tmp"/><feMerge id="eDQuEs8Kw4e9-filter-drop-shadow-0-merge" result="result"><feMergeNode id="eDQuEs8Kw4e9-filter-drop-shadow-0-merge-node-1"/><feMergeNode id="eDQuEs8Kw4e9-filter-drop-shadow-0-merge-node-2" in="result"/></feMerge></filter><linearGradient id="eDQuEs8Kw4e9-fill" x1="0" y1="0" x2="0.98913" y2="1" spreadMethod="pad" gradientUnits="objectBoundingBox" gradientTransform="translate(0 0)"><stop id="eDQuEs8Kw4e9-fill-0" offset="0%" stop-color="#e8f9fd"/><stop id="eDQuEs8Kw4e9-fill-1" offset="100%" stop-color="#c3ebf4"/></linearGradient><linearGradient id="eDQuEs8Kw4e10-fill" x1="0" y1="0" x2="0.98913" y2="1" spreadMethod="pad" gradientUnits="objectBoundingBox" gradientTransform="translate(0 0)"><stop id="eDQuEs8Kw4e10-fill-0" offset="17.8259%" stop-color="rgba(255,255,255,0)"/><stop id="eDQuEs8Kw4e10-fill-1" offset="20.901%" stop-color="#fff"/><stop id="eDQuEs8Kw4e10-fill-2" offset="49.0384%" stop-color="#fff"/><stop id="eDQuEs8Kw4e10-fill-3" offset="52.4724%" stop-color="rgba(255,255,255,0)"/></linearGradient><filter id="eDQuEs8Kw4e12-filter" x="-150%" width="400%" y="-150%" height="400%"><feGaussianBlur id="eDQuEs8Kw4e12-filter-drop-shadow-0-blur" in="SourceAlpha" stdDeviation="8,8"/><feOffset id="eDQuEs8Kw4e12-filter-drop-shadow-0-offset" dx="5" dy="5" result="tmp"/><feFlood id="eDQuEs8Kw4e12-filter-drop-shadow-0-flood" flood-color="rgba(0,0,0,0.3)"/><feComposite id="eDQuEs8Kw4e12-filter-drop-shadow-0-composite" operator="in" in2="tmp"/><feMerge id="eDQuEs8Kw4e12-filter-drop-shadow-0-merge" result="result"><feMergeNode id="eDQuEs8Kw4e12-filter-drop-shadow-0-merge-node-1"/><feMergeNode id="eDQuEs8Kw4e12-filter-drop-shadow-0-merge-node-2" in="SourceGraphic"/></feMerge></filter><filter id="eDQuEs8Kw4e13-filter" x="-150%" width="400%" y="-150%" height="400%"><feGaussianBlur id="eDQuEs8Kw4e13-filter-inner-shadow-0-blur" in="SourceAlpha" stdDeviation="2,2"/><feOffset id="eDQuEs8Kw4e13-filter-inner-shadow-0-offset" dx="2" dy="2" result="tmp"/><feComposite id="eDQuEs8Kw4e13-filter-inner-shadow-0-composite" operator="arithmetic" k2="-1" k3="1" in2="SourceGraphic"/><feColorMatrix id="eDQuEs8Kw4e13-filter-inner-shadow-0-color-matrix" type="matrix" values="0 0 0 0 0 0 0 0 0 0 0 0 0 0 0 0 0 0 0.3 0"/><feMerge id="eDQuEs8Kw4e13-filter-inner-shadow-0-merge" result="result"><feMergeNode id="eDQuEs8Kw4e13-filter-inner-shadow-0-merge-node-1" in="SourceGraphic"/><feMergeNode id="eDQuEs8Kw4e13-filter-inner-shadow-0-merge-node-2"/></feMerge><feGaussianBlur id="eDQuEs8Kw4e13-filter-drop-shadow-0-blur" in="result" stdDeviation="1,1"/><feOffset id="eDQuEs8Kw4e13-filter-drop-shadow-0-offset" dx="0" dy="0" result="tmp"/><feFlood id="eDQuEs8Kw4e13-filter-drop-shadow-0-flood" flood-color="rgba(0,0,0,0.4)"/><feComposite id="eDQuEs8Kw4e13-filter-drop-shadow-0-composite" operator="in" in2="tmp"/><feMerge id="eDQuEs8Kw4e13-filter-drop-shadow-0-merge" result="result"><feMergeNode id="eDQuEs8Kw4e13-filter-drop-shadow-0-merge-node-1"/><feMergeNode id="eDQuEs8Kw4e13-filter-drop-shadow-0-merge-node-2" in="result"/></feMerge></filter><linearGradient id="eDQuEs8Kw4e13-fill" x1="0" y1="0" x2="0.98913" y2="1" spreadMethod="pad" gradientUnits="objectBoundingBox" gradientTransform="translate(0 0)"><stop id="eDQuEs8Kw4e13-fill-0" offset="0%" stop-color="#f0eef1"/><stop id="eDQuEs8Kw4e13-fill-1" offset="100%" stop-color="#dac7e8"/></linearGradient><linearGradient id="eDQuEs8Kw4e14-fill" x1="0" y1="0" x2="0.98913" y2="1" spreadMethod="pad" gradientUnits="objectBoundingBox" gradientTransform="translate(0 0)"><stop id="eDQuEs8Kw4e14-fill-0" offset="17.8259%" stop-color="rgba(255,255,255,0)"/><stop id="eDQuEs8Kw4e14-fill-1" offset="20.901%" stop-color="#fff"/><stop id="eDQuEs8Kw4e14-fill-2" offset="49.0384%" stop-color="#fff"/><stop id="eDQuEs8Kw4e14-fill-3" offset="52.4724%" stop-color="rgba(255,255,255,0)"/></linearGradient><linearGradient id="eDQuEs8Kw4e15-stroke" x1="0" y1="0.5" x2="1" y2="0.5" spreadMethod="pad" gradientUnits="objectBoundingBox" gradientTransform="translate(0 0)"><stop id="eDQuEs8Kw4e15-stroke-0" offset="0%" stop-color="#229ebc"/><stop id="eDQuEs8Kw4e15-stroke-1" offset="100%" stop-color="#720db7"/></linearGradient><linearGradient id="eDQuEs8Kw4e16-stroke" x1="0" y1="1" x2="1" y2="0" spreadMethod="pad" gradientUnits="objectBoundingBox" gradientTransform="translate(0 0)"><stop id="eDQuEs8Kw4e16-stroke-0" offset="0%" stop-color="#229ebc"/><stop id="eDQuEs8Kw4e16-stroke-1" offset="100%" stop-color="#ffb700"/></linearGradient><linearGradient id="eDQuEs8Kw4e17-stroke" x1="1" y1="0" x2="0" y2="1" spreadMethod="pad" gradientUnits="objectBoundingBox" gradientTransform="translate(0 0)"><stop id="eDQuEs8Kw4e17-stroke-0" offset="0%" stop-color="#ffb700"/><stop id="eDQuEs8Kw4e17-stroke-1" offset="100%" stop-color="#720db7"/></linearGradient></defs><g transform="translate(-1036.912659-218.308059)"><g transform="translate(1232.605601-389.912001)"><path d="M346.64,1030.4h117.33c3.6094,0,6.6562-2.5312,7.3594-6.0469l19.453-99.844h218.48l19.453,99.844c.70312,3.5625,3.75,6.0469,7.3594,6.0469h117.33c29.953,0,25.969,31.828,25.969,51.938h-558.71c0-20.109-3.9844-51.938,25.969-51.938h.0072Zm764.58-912.74c28.219,0,51.281,23.109,51.281,51.281v679.26c0,28.219-23.109,51.281-51.281,51.281h-1022.4c-28.172,0-51.281-23.062-51.281-51.281v-679.26c0-28.219,23.109-51.281,51.281-51.281h1022.4Zm-17.719,69.703h-987v642.42h987v-642.42Z" transform="matrix(.206263 0 0 0.206262 107.089442 591.077516)" filter="url(#eDQuEs8Kw4e4-filter)" fill="#ffb703" fill-rule="evenodd"/><path d="M28.631374,420.431528l203.581581.000001v132.506833h-203.581581v-132.506834Z" transform="translate(100.427249 209.059543)" filter="url(#eDQuEs8Kw4e5-filter)" fill="url(#eDQuEs8Kw4e5-fill)" stroke-width="4"/><path d="M28.631374,420.431528l203.581581.000001v132.506833h-203.581581v-132.506834Z" transform="translate(100.427249 209.059543)" opacity="0.5" fill="url(#eDQuEs8Kw4e6-fill)" stroke-width="4"/></g><g transform="translate(698.304517 4.686781)"><path d="M346.64,1030.4h117.33c3.6094,0,6.6562-2.5312,7.3594-6.0469l19.453-99.844h218.48l19.453,99.844c.70312,3.5625,3.75,6.0469,7.3594,6.0469h117.33c29.953,0,25.969,31.828,25.969,51.938h-558.71c0-20.109-3.9844-51.938,25.969-51.938h.0072Zm764.58-912.74c28.219,0,51.281,23.109,51.281,51.281v679.26c0,28.219-23.109,51.281-51.281,51.281h-1022.4c-28.172,0-51.281-23.062-51.281-51.281v-679.26c0-28.219,23.109-51.281,51.281-51.281h1022.4Zm-17.719,69.703h-987v642.42h987v-642.42Z" transform="matrix(.206263 0 0 0.206262 410.868435 591.077516)" filter="url(#eDQuEs8Kw4e8-filter)" fill="#219ebc" fill-rule="evenodd"/><path d="M28.631374,420.431528l203.581581.000001v132.506833h-203.581581v-132.506834Z" transform="translate(404.21015 208.860326)" filter="url(#eDQuEs8Kw4e9-filter)" fill="url(#eDQuEs8Kw4e9-fill)" stroke-width="4"/><path d="M28.631374,420.431528l203.581581.000001v132.506833h-203.581581v-132.506834Z" transform="translate(404.208195 209.059543)" opacity="0.5" fill="url(#eDQuEs8Kw4e10-fill)" stroke-width="4"/></g><g transform="translate(877.481147 6.019312)"><path d="M346.64,1030.4h117.33c3.6094,0,6.6562-2.5312,7.3594-6.0469l19.453-99.844h218.48l19.453,99.844c.70312,3.5625,3.75,6.0469,7.3594,6.0469h117.33c29.953,0,25.969,31.828,25.969,51.938h-558.71c0-20.109-3.9844-51.938,25.969-51.938h.0072Zm764.58-912.74c28.219,0,51.281,23.109,51.281,51.281v679.26c0,28.219-23.109,51.281-51.281,51.281h-1022.4c-28.172,0-51.281-23.062-51.281-51.281v-679.26c0-28.219,23.109-51.281,51.281-51.281h1022.4Zm-17.719,69.703h-987v642.42h987v-642.42Z" transform="matrix(.206263 0 0 0.206262 714.647428 591.077516)" filter="url(#eDQuEs8Kw4e12-filter)" fill="#7209b7" fill-rule="evenodd"/><path d="M28.631374,420.431528l203.581581.000001v132.506833h-203.581581v-132.506834Z" transform="translate(707.987187 209.392211)" filter="url(#eDQuEs8Kw4e13-filter)" fill="url(#eDQuEs8Kw4e13-fill)" stroke-width="4"/><path d="M28.631374,420.431528l203.581581.000001v132.506833h-203.581581v-132.506834Z" transform="translate(707.987188 209.059543)" opacity="0.5" fill="url(#eDQuEs8Kw4e14-fill)" stroke-width="4"/></g><path d="M1323.258634,696.823455l238.108772.87461" transform="translate(32.099639 5.273013)" fill="none" stroke="url(#eDQuEs8Kw4e15-stroke)" stroke-width="8" stroke-linecap="round"/><path d="M1194.349649,624.867267l160-200" transform="translate(33.017799-24.867267)" fill="none" stroke="url(#eDQuEs8Kw4e16-stroke)" stroke-width="8" stroke-linecap="round"/><path d="M1194.349649,624.867267l160-200" transform="matrix(-1 0 0 1 2894.595523-24.867267)" fill="none" stroke="url(#eDQuEs8Kw4e17-stroke)" stroke-width="8" stroke-linecap="round"/></g></svg>
