<svg id="eJQ1H5pfgMT1" xmlns="http://www.w3.org/2000/svg" xmlns:xlink="http://www.w3.org/1999/xlink" viewBox="0 0 875 625" shape-rendering="geometricPrecision" text-rendering="geometricPrecision"><g transform="translate(-100.425284-209.291854)"><g transform="matrix(.182854 0 0 0.182854 424.685283 214.966436)"><path d="M1001.2,991.5c-19.406,0-35.156,15.75-35.156,35.156s15.75,35.156,35.156,35.156s35.156-15.75,35.156-35.156-15.75-35.156-35.156-35.156Z"/><path d="M866.68,991.5c-19.406,0-35.156,15.75-35.156,35.156s15.75,35.156,35.156,35.156s35.156-15.75,35.156-35.156-15.75-35.156-35.156-35.156Z"/><path d="M732.14,991.5c-19.406,0-35.156,15.75-35.156,35.156s15.75,35.156,35.156,35.156s35.156-15.75,35.156-35.156c-.046875-19.406-15.797-35.156-35.156-35.156Z"/><path d="M189.1,964.82c-7.2656,0-12.141,4.8281-12.141,12.141v98.203c0,7.2656,4.8281,12.141,12.141,12.141c7.2656,0,12.141-4.8281,12.141-12.141v-98.203c0-7.2656-4.875-12.141-12.141-12.141Z"/><path d="M269.11,964.82c-7.2656,0-12.141,4.8281-12.141,12.141v98.203c0,7.2656,4.8281,12.141,12.141,12.141c7.2656,0,12.141-4.8281,12.141-12.141v-98.203c-.046875-7.2656-4.875-12.141-12.141-12.141Z"/><path d="M349.08,964.82c-7.2656,0-12.141,4.8281-12.141,12.141v98.203c0,7.2656,4.8281,12.141,12.141,12.141c7.2656,0,12.141-4.8281,12.141-12.141v-98.203c0-7.2656-4.875-12.141-12.141-12.141Z"/><path d="M1001.2,616.97c-19.406,0-35.156,15.75-35.156,35.156s15.75,35.156,35.156,35.156s35.156-15.75,35.156-35.156-15.75-35.156-35.156-35.156Z"/><path d="M901.82,652.13c0,46.875-70.312,46.875-70.312,0s70.312-46.875,70.312,0"/><path d="M732.14,616.97c-19.406,0-35.156,15.75-35.156,35.156s15.75,35.156,35.156,35.156s35.156-15.75,35.156-35.156c-.046875-19.406-15.797-35.156-35.156-35.156Z"/><path d="M189.1,590.29c-7.2656,0-12.141,4.8281-12.141,12.141v98.203c0,7.2656,4.8281,12.141,12.141,12.141c7.2656,0,12.141-4.8281,12.141-12.141v-98.203c0-7.2656-4.875-12.141-12.141-12.141Z"/><path d="M269.11,590.29c-7.2656,0-12.141,4.8281-12.141,12.141v98.203c0,7.2656,4.8281,12.141,12.141,12.141c7.2656,0,12.141-4.8281,12.141-12.141v-98.203c-.046875-7.2656-4.875-12.141-12.141-12.141Z"/><path d="M349.08,590.29c-7.2656,0-12.141,4.8281-12.141,12.141v98.203c0,7.2656,4.8281,12.141,12.141,12.141c7.2656,0,12.141-4.8281,12.141-12.141v-98.203c0-7.2656-4.875-12.141-12.141-12.141Z"/><path d="M1175.8,370.92v-189.1c1.2188-3.6562,0-7.2656-1.2188-10.922l-60.609-132.14c-2.4375-6.0469-9.7031-10.922-16.969-10.922l-991.5.046874c-7.2656,0-13.312,3.6562-16.969,10.922l-60.609,132.14c-1.2188,3.6562-2.4375,7.2656-1.2188,10.922v190.31c0,26.672,25.453,48.469,55.734,48.469l2.4375-.046876-56.953,123.66c-1.2188,3.6562-2.4375,7.2656-1.2188,10.922v190.31c0,26.672,25.453,48.469,55.734,48.469h3.6562l-58.172,124.82c-1.2188,3.6562-2.4375,7.2656-1.2188,10.922v190.31c0,26.672,24.234,48.469,55.734,48.469h1036.4c30.281,0,54.562-20.625,56.953-49.688l.046874-186.71v-2.4375c1.2188-3.6562,0-7.2656-1.2188-10.922l-56.953-124.82h1.2188c30.281,0,54.562-20.625,56.953-49.688v-189.1c1.2188-3.6562,0-7.2656-1.2188-10.922l-56.953-123.66h1.2188c30.281.046876,54.516-20.578,56.953-49.641L1175.8,370.92ZM117.6,64.26h968.48l32.719,71.531-1033.9-.046875L117.6,64.26ZM63.084,372.13v-187.87c0-6.0469,8.4844-12.141,19.406-12.141h1037.6c10.922,0,19.406,6.0469,19.406,12.141v185.44c0,8.4844-9.7031,14.531-20.625,14.531h-1036.4c-10.875,0-19.359-6.0469-19.359-12.094l-.028-.007Zm1055.7,759.98h-1036.4c-10.922,0-19.406-6.0469-19.406-12.141l.046875-187.87c0-6.0469,8.4844-12.141,19.406-12.141h1037.6c10.922,0,19.406,6.0469,19.406,12.141v185.44c-.046875,8.5312-9.75,14.578-20.672,14.578l.019125-.007Zm-38.766-330.89l37.594,82.406h-1032.7l37.594-82.406c1.2188-2.4375,1.2188-4.8281,1.2188-7.2656h56.953v32.719c0,15.75,13.312,27.891,27.891,27.891h787.87c15.75,0,27.891-12.141,27.891-27.891v-32.719l54.516-.046875c0,2.4375,0,4.875,1.2188,7.3125l-.0466-.000025Zm38.766-43.641h-1036.4c-10.922,0-19.406-6.0469-19.406-12.141l.046875-187.87c0-6.0469,8.4844-12.141,19.406-12.141h1037.6c10.922,0,19.406,6.0469,19.406,12.141v185.44c-.046875,8.4844-9.75,14.578-20.672,14.578l.019125-.007Zm-38.766-330.94l37.594,82.406-1032.7.046875l37.594-82.406c1.2188-2.4375,1.2188-3.6562,1.2188-6.0469h56.953v37.594c0,15.75,12.141,27.891,27.891,27.891h787.87c15.75,0,27.891-12.141,27.891-27.891v-37.594l54.516-.046875c0,2.4375,1.2188,4.8281,1.2188,6.0469h-.0466Z"/><path d="M1001.2,243.66c-19.406,0-35.156,15.75-35.156,35.156s15.75,35.156,35.156,35.156s35.156-15.75,35.156-35.156-15.75-35.156-35.156-35.156Z"/><path d="M866.68,243.66c-19.406,0-35.156,15.75-35.156,35.156s15.75,35.156,35.156,35.156s35.156-15.75,35.156-35.156-15.75-35.156-35.156-35.156Z"/><path d="M732.14,243.66c-19.406,0-35.156,15.75-35.156,35.156s15.75,35.156,35.156,35.156s35.156-15.75,35.156-35.156c-.046875-19.406-15.797-35.156-35.156-35.156Z"/><path d="M189.1,216.98c-7.2656,0-12.141,4.8281-12.141,12.141v98.156c0,7.2656,4.8281,12.141,12.141,12.141c7.2656,0,12.141-4.8281,12.141-12.141v-98.203c0-7.2656-4.875-12.094-12.141-12.094Z"/><path d="M269.11,216.98c-7.2656,0-12.141,4.8281-12.141,12.141v98.156c0,7.2656,4.8281,12.141,12.141,12.141c7.2656,0,12.141-4.8281,12.141-12.141v-98.203c-.046875-7.2656-4.875-12.094-12.141-12.094Z"/><path d="M349.08,216.98c-7.2656,0-12.141,4.8281-12.141,12.141l.046875,98.156c0,7.2656,4.8281,12.141,12.141,12.141c7.2656,0,12.141-4.8281,12.141-12.141v-98.203c-.046875-7.2656-4.9219-12.094-12.188-12.094h.000125Z"/></g><path d="M346.64,1030.4h117.33c3.6094,0,6.6562-2.5312,7.3594-6.0469l19.453-99.844h218.48l19.453,99.844c.70312,3.5625,3.75,6.0469,7.3594,6.0469h117.33c29.953,0,25.969,31.828,25.969,51.938h-558.71c0-20.109-3.9844-51.938,25.969-51.938h.0072Zm764.58-912.74c28.219,0,51.281,23.109,51.281,51.281v679.26c0,28.219-23.109,51.281-51.281,51.281h-1022.4c-28.172,0-51.281-23.062-51.281-51.281v-679.26c0-28.219,23.109-51.281,51.281-51.281h1022.4Zm-17.719,69.703h-987v642.42h987v-642.42Z" transform="matrix(.206263 0 0 0.206262 714.647428 591.077516)" fill-rule="evenodd"/><path d="M346.64,1030.4h117.33c3.6094,0,6.6562-2.5312,7.3594-6.0469l19.453-99.844h218.48l19.453,99.844c.70312,3.5625,3.75,6.0469,7.3594,6.0469h117.33c29.953,0,25.969,31.828,25.969,51.938h-558.71c0-20.109-3.9844-51.938,25.969-51.938h.0072Zm764.58-912.74c28.219,0,51.281,23.109,51.281,51.281v679.26c0,28.219-23.109,51.281-51.281,51.281h-1022.4c-28.172,0-51.281-23.062-51.281-51.281v-679.26c0-28.219,23.109-51.281,51.281-51.281h1022.4Zm-17.719,69.703h-987v642.42h987v-642.42Z" transform="matrix(.206263 0 0 0.206262 107.089442 591.077516)" fill-rule="evenodd"/><path d="M346.64,1030.4h117.33c3.6094,0,6.6562-2.5312,7.3594-6.0469l19.453-99.844h218.48l19.453,99.844c.70312,3.5625,3.75,6.0469,7.3594,6.0469h117.33c29.953,0,25.969,31.828,25.969,51.938h-558.71c0-20.109-3.9844-51.938,25.969-51.938h.0072Zm764.58-912.74c28.219,0,51.281,23.109,51.281,51.281v679.26c0,28.219-23.109,51.281-51.281,51.281h-1022.4c-28.172,0-51.281-23.062-51.281-51.281v-679.26c0-28.219,23.109-51.281,51.281-51.281h1022.4Zm-17.719,69.703h-987v642.42h987v-642.42Z" transform="matrix(.206263 0 0 0.206262 410.868435 591.077516)" fill-rule="evenodd"/><path d="M230.851367,601.795311L534.630353,442.400649l303.779,159.394662" fill="none" stroke="#000" stroke-width="8" stroke-linecap="round" stroke-linejoin="round"/><path d="M534.63036,601.795311q-.000007,0,0-159.394662" fill="none" stroke="#000" stroke-width="8" stroke-linecap="round"/></g></svg>
