<svg id="epYnsrV0tFu1" xmlns="http://www.w3.org/2000/svg" xmlns:xlink="http://www.w3.org/1999/xlink" viewBox="0 0 875 625" shape-rendering="geometricPrecision" text-rendering="geometricPrecision"><g transform="translate(-1038.48507-218.308059)"><path d="M346.64,1030.4h117.33c3.6094,0,6.6562-2.5312,7.3594-6.0469l19.453-99.844h218.48l19.453,99.844c.70312,3.5625,3.75,6.0469,7.3594,6.0469h117.33c29.953,0,25.969,31.828,25.969,51.938h-558.71c0-20.109-3.9844-51.938,25.969-51.938h.0072Zm764.58-912.74c28.219,0,51.281,23.109,51.281,51.281v679.26c0,28.219-23.109,51.281-51.281,51.281h-1022.4c-28.172,0-51.281-23.062-51.281-51.281v-679.26c0-28.219,23.109-51.281,51.281-51.281h1022.4Zm-17.719,69.703h-987v642.42h987v-642.42Z" transform="matrix(.206263 0 0 0.206262 1591.147826 598.180405)" fill-rule="evenodd"/><path d="M346.64,1030.4h117.33c3.6094,0,6.6562-2.5312,7.3594-6.0469l19.453-99.844h218.48l19.453,99.844c.70312,3.5625,3.75,6.0469,7.3594,6.0469h117.33c29.953,0,25.969,31.828,25.969,51.938h-558.71c0-20.109-3.9844-51.938,25.969-51.938h.0072Zm764.58-912.74c28.219,0,51.281,23.109,51.281,51.281v679.26c0,28.219-23.109,51.281-51.281,51.281h-1022.4c-28.172,0-51.281-23.062-51.281-51.281v-679.26c0-28.219,23.109-51.281,51.281-51.281h1022.4Zm-17.719,69.703h-987v642.42h987v-642.42Z" transform="matrix(.206263 0 0 0.206262 1108.192248 596.847901)" fill-rule="evenodd"/><path d="M346.64,1030.4h117.33c3.6094,0,6.6562-2.5312,7.3594-6.0469l19.453-99.844h218.48l19.453,99.844c.70312,3.5625,3.75,6.0469,7.3594,6.0469h117.33c29.953,0,25.969,31.828,25.969,51.938h-558.71c0-20.109-3.9844-51.938,25.969-51.938h.0072Zm764.58-912.74c28.219,0,51.281,23.109,51.281,51.281v679.26c0,28.219-23.109,51.281-51.281,51.281h-1022.4c-28.172,0-51.281-23.062-51.281-51.281v-679.26c0-28.219,23.109-51.281,51.281-51.281h1022.4Zm-17.719,69.703h-987v642.42h987v-642.42Z" transform="matrix(.206263 0 0 0.206262 1343.714334 202.249093)" fill-rule="evenodd"/><path d="M1329.099332,697.698065h232.268074" transform="translate(29.179315 3.408597)" fill="none" stroke="#000" stroke-width="8" stroke-linecap="round"/><path d="M1194.349649,624.867267l160-200" transform="translate(33.017799-24.867267)" fill="none" stroke="#000" stroke-width="8" stroke-linecap="round"/><path d="M1194.349649,624.867267l160-200" transform="matrix(-1 0 0 1 2894.595523-24.867267)" fill="none" stroke="#000" stroke-width="8" stroke-linecap="round"/></g></svg>
