<svg id="emBgtTah8qf1" xmlns="http://www.w3.org/2000/svg" xmlns:xlink="http://www.w3.org/1999/xlink" viewBox="0 0 40 80" shape-rendering="geometricPrecision" text-rendering="geometricPrecision" width="40" height="80"><g mask="url(#emBgtTah8qf48)"><g transform="translate(-75 4.940009)"><g id="emBgtTah8qf4" transform="translate(60 60)"><ellipse rx="5" ry="5" transform="translate(165 5)" fill="#d2dbed" stroke-width="0"/><ellipse rx="5" ry="5" transform="translate(65 5)" fill="#d2dbed" stroke-width="0"/><ellipse rx="5" ry="5" transform="translate(125 5)" fill="#d2dbed" stroke-width="0"/><ellipse rx="5" ry="5" transform="translate(25 5)" fill="#d2dbed" stroke-width="0"/><ellipse rx="5" ry="5" transform="translate(185 5)" fill="#d2dbed" stroke-width="0"/><ellipse rx="5" ry="5" transform="translate(85 5)" fill="#d2dbed" stroke-width="0"/><ellipse rx="5" ry="5" transform="translate(145 5)" fill="#d2dbed" stroke-width="0"/><ellipse rx="5" ry="5" transform="translate(45 5)" fill="#d2dbed" stroke-width="0"/><ellipse rx="5" ry="5" transform="translate(105 5)" fill="#d2dbed" stroke-width="0"/><ellipse rx="5" ry="5" transform="translate(5 5)" fill="#d2dbed" stroke-width="0"/></g><g id="emBgtTah8qf15" transform="translate(0 40)"><ellipse rx="5" ry="5" transform="translate(165 5)" fill="#d2dbed" stroke-width="0"/><ellipse rx="5" ry="5" transform="translate(65 5)" fill="#d2dbed" stroke-width="0"/><ellipse rx="5" ry="5" transform="translate(125 5)" fill="#d2dbed" stroke-width="0"/><ellipse rx="5" ry="5" transform="translate(25 5)" fill="#d2dbed" stroke-width="0"/><ellipse rx="5" ry="5" transform="translate(185 5)" fill="#d2dbed" stroke-width="0"/><ellipse rx="5" ry="5" transform="translate(85 5)" fill="#d2dbed" stroke-width="0"/><ellipse rx="5" ry="5" transform="translate(145 5)" fill="#d2dbed" stroke-width="0"/><ellipse rx="5" ry="5" transform="translate(45 5)" fill="#d2dbed" stroke-width="0"/><ellipse rx="5" ry="5" transform="translate(105 5)" fill="#d2dbed" stroke-width="0"/><ellipse rx="5" ry="5" transform="translate(5 5)" fill="#d2dbed" stroke-width="0"/></g><g id="emBgtTah8qf26" transform="translate(60 20)"><ellipse rx="5" ry="5" transform="translate(165 5)" fill="#d2dbed" stroke-width="0"/><ellipse rx="5" ry="5" transform="translate(65 5)" fill="#d2dbed" stroke-width="0"/><ellipse rx="5" ry="5" transform="translate(125 5)" fill="#d2dbed" stroke-width="0"/><ellipse rx="5" ry="5" transform="translate(25 5)" fill="#d2dbed" stroke-width="0"/><ellipse rx="5" ry="5" transform="translate(185 5)" fill="#d2dbed" stroke-width="0"/><ellipse rx="5" ry="5" transform="translate(85 5)" fill="#d2dbed" stroke-width="0"/><ellipse rx="5" ry="5" transform="translate(145 5)" fill="#d2dbed" stroke-width="0"/><ellipse rx="5" ry="5" transform="translate(45 5)" fill="#d2dbed" stroke-width="0"/><ellipse rx="5" ry="5" transform="translate(105 5)" fill="#d2dbed" stroke-width="0"/><ellipse rx="5" ry="5" transform="translate(5 5)" fill="#d2dbed" stroke-width="0"/></g><g id="emBgtTah8qf37"><ellipse rx="5" ry="5" transform="translate(165 5)" fill="#d2dbed" stroke-width="0"/><ellipse rx="5" ry="5" transform="translate(65 5)" fill="#d2dbed" stroke-width="0"/><ellipse rx="5" ry="5" transform="translate(125 5)" fill="#d2dbed" stroke-width="0"/><ellipse rx="5" ry="5" transform="translate(25 5)" fill="#d2dbed" stroke-width="0"/><ellipse rx="5" ry="5" transform="translate(185 5)" fill="#d2dbed" stroke-width="0"/><ellipse rx="5" ry="5" transform="translate(85 5)" fill="#d2dbed" stroke-width="0"/><ellipse rx="5" ry="5" transform="translate(145 5)" fill="#d2dbed" stroke-width="0"/><ellipse rx="5" ry="5" transform="translate(45 5)" fill="#d2dbed" stroke-width="0"/><ellipse rx="5" ry="5" transform="translate(105 5)" fill="#d2dbed" stroke-width="0"/><ellipse rx="5" ry="5" transform="translate(5 5)" fill="#d2dbed" stroke-width="0"/></g></g><mask id="emBgtTah8qf48" mask-type="luminance" x="-150%" y="-150%" height="400%" width="400%"><rect width="40" height="80" rx="0" ry="0" transform="translate(.060241 0)" fill="#fff" stroke-width="0"/></mask></g>
<script><![CDATA[
]]></script>
</svg>
